<svg width="1849" height="340" viewBox="0 0 1849 340" fill="none" xmlns="http://www.w3.org/2000/svg">
<g clip-path="url(#clip0_424_432)">
<path d="M349.487 299.174V314.086H365.743V318.886H349.487V334.246H367.663V339.046H343.663V294.374H367.663V299.174H349.487Z" fill="#0D5EAF"/>
<path d="M403.932 294.438V299.174H391.772V339.046H385.948V299.174H373.724V294.438H403.932Z" fill="#0D5EAF"/>
<path d="M437.469 329.126H418.013L414.429 339.046H408.285L424.413 294.694H431.133L447.197 339.046H441.053L437.469 329.126ZM435.805 324.39L427.741 301.862L419.677 324.39H435.805Z" fill="#0D5EAF"/>
<path d="M476.562 316.07C478.183 316.326 479.655 316.987 480.978 318.054C482.343 319.121 483.41 320.443 484.178 322.022C484.989 323.601 485.394 325.286 485.394 327.078C485.394 329.339 484.818 331.387 483.666 333.222C482.514 335.014 480.829 336.443 478.61 337.51C476.434 338.534 473.853 339.046 470.866 339.046H454.226V294.438H470.226C473.255 294.438 475.837 294.95 477.97 295.974C480.103 296.955 481.703 298.299 482.77 300.006C483.837 301.713 484.37 303.633 484.37 305.766C484.37 308.411 483.645 310.609 482.194 312.358C480.786 314.065 478.909 315.302 476.562 316.07ZM460.05 313.702H469.842C472.573 313.702 474.685 313.062 476.178 311.782C477.671 310.502 478.418 308.731 478.418 306.47C478.418 304.209 477.671 302.438 476.178 301.158C474.685 299.878 472.53 299.238 469.714 299.238H460.05V313.702ZM470.354 334.246C473.255 334.246 475.517 333.563 477.138 332.198C478.759 330.833 479.57 328.934 479.57 326.502C479.57 324.027 478.717 322.086 477.01 320.678C475.303 319.227 473.021 318.502 470.162 318.502H460.05V334.246H470.354Z" fill="#0D5EAF"/>
<path d="M499.3 334.31H514.916V339.046H493.476V294.438H499.3V334.31Z" fill="#0D5EAF"/>
<path d="M526.925 299.174V314.086H543.181V318.886H526.925V334.246H545.101V339.046H521.101V294.374H545.101V299.174H526.925Z" fill="#0D5EAF"/>
<path d="M577.401 339.046L566.777 320.806H559.737V339.046H553.913V294.438H568.313C571.684 294.438 574.521 295.014 576.825 296.166C579.172 297.318 580.921 298.875 582.073 300.838C583.225 302.801 583.801 305.041 583.801 307.558C583.801 310.63 582.905 313.339 581.113 315.686C579.364 318.033 576.719 319.59 573.177 320.358L584.377 339.046H577.401ZM559.737 316.134H568.313C571.471 316.134 573.839 315.366 575.417 313.83C576.996 312.251 577.785 310.161 577.785 307.558C577.785 304.913 576.996 302.865 575.417 301.414C573.881 299.963 571.513 299.238 568.313 299.238H559.737V316.134Z" fill="#0D5EAF"/>
<path d="M620.307 294.438V299.174H608.147V339.046H602.323V299.174H590.099V294.438H620.307Z" fill="#0D5EAF"/>
<path d="M642.042 298.086V292.774H654.074V339.046H648.186V298.086H642.042Z" fill="#0D5EAF"/>
<path d="M671.566 326.63C671.993 329.062 672.974 330.939 674.51 332.262C676.089 333.585 678.201 334.246 680.846 334.246C684.388 334.246 686.99 332.859 688.654 330.086C690.361 327.313 691.172 322.641 691.086 316.07C690.19 317.99 688.697 319.505 686.606 320.614C684.516 321.681 682.19 322.214 679.63 322.214C676.772 322.214 674.212 321.638 671.95 320.486C669.732 319.291 667.982 317.563 666.702 315.302C665.422 313.041 664.782 310.31 664.782 307.11C664.782 302.545 666.105 298.875 668.75 296.102C671.396 293.286 675.15 291.878 680.014 291.878C685.988 291.878 690.169 293.819 692.558 297.702C694.99 301.585 696.206 307.366 696.206 315.046C696.206 320.422 695.716 324.859 694.734 328.358C693.796 331.857 692.174 334.523 689.87 336.358C687.609 338.193 684.494 339.11 680.526 339.11C676.174 339.11 672.782 337.937 670.35 335.59C667.918 333.243 666.532 330.257 666.19 326.63H671.566ZM680.59 317.286C683.449 317.286 685.796 316.411 687.63 314.662C689.465 312.87 690.382 310.459 690.382 307.43C690.382 304.23 689.486 301.649 687.694 299.686C685.902 297.723 683.385 296.742 680.142 296.742C677.156 296.742 674.766 297.681 672.974 299.558C671.225 301.435 670.35 303.91 670.35 306.982C670.35 310.097 671.225 312.593 672.974 314.47C674.724 316.347 677.262 317.286 680.59 317.286Z" fill="#0D5EAF"/>
<path d="M703.687 334.374C709.105 330.022 713.351 326.459 716.423 323.686C719.495 320.87 722.076 317.947 724.167 314.918C726.3 311.846 727.367 308.838 727.367 305.894C727.367 303.121 726.684 300.945 725.319 299.366C723.996 297.745 721.842 296.934 718.855 296.934C715.954 296.934 713.692 297.851 712.071 299.686C710.492 301.478 709.639 303.889 709.511 306.918H703.879C704.05 302.139 705.5 298.449 708.231 295.846C710.962 293.243 714.481 291.942 718.791 291.942C723.185 291.942 726.663 293.158 729.223 295.59C731.826 298.022 733.127 301.371 733.127 305.638C733.127 309.179 732.06 312.635 729.927 316.006C727.836 319.334 725.447 322.278 722.759 324.838C720.071 327.355 716.636 330.299 712.455 333.67H734.471V338.534H703.687V334.374Z" fill="#0D5EAF"/>
<path d="M739.795 328.742V324.326L762.259 293.222H769.235V323.686H775.635V328.742H769.235V339.046H763.475V328.742H739.795ZM763.731 299.302L746.515 323.686H763.731V299.302Z" fill="#0D5EAF"/>
<path d="M423.869 189.996H368.219L357.544 219.046H344.594L389.219 98.296H403.044L447.494 219.046H434.544L423.869 189.996ZM420.194 179.846L396.044 113.696L371.894 179.846H420.194Z" fill="#272727"/>
<path d="M479.404 140.471C482.087 134.521 486.17 129.913 491.654 126.646C497.254 123.379 504.079 121.746 512.129 121.746V134.521H508.804C499.937 134.521 492.82 136.913 487.454 141.696C482.087 146.479 479.404 154.471 479.404 165.671V219.046H467.154V123.496H479.404V140.471Z" fill="#272727"/>
<path d="M617.007 166.371C617.007 170.571 616.89 173.779 616.657 175.996H537.382C537.732 183.229 539.482 189.413 542.632 194.546C545.782 199.679 549.924 203.588 555.057 206.271C560.19 208.838 565.79 210.121 571.857 210.121C579.79 210.121 586.44 208.196 591.807 204.346C597.29 200.496 600.907 195.304 602.657 188.771H615.607C613.274 198.104 608.257 205.746 600.557 211.696C592.974 217.529 583.407 220.446 571.857 220.446C562.874 220.446 554.824 218.463 547.707 214.496C540.59 210.413 534.99 204.696 530.907 197.346C526.94 189.879 524.957 181.188 524.957 171.271C524.957 161.354 526.94 152.663 530.907 145.196C534.874 137.729 540.415 132.013 547.532 128.046C554.649 124.079 562.757 122.096 571.857 122.096C580.957 122.096 588.89 124.079 595.657 128.046C602.54 132.013 607.79 137.379 611.407 144.146C615.14 150.796 617.007 158.204 617.007 166.371ZM604.582 166.021C604.699 158.904 603.24 152.838 600.207 147.821C597.29 142.804 593.265 139.013 588.132 136.446C582.999 133.879 577.399 132.596 571.332 132.596C562.232 132.596 554.474 135.513 548.057 141.346C541.64 147.179 538.082 155.404 537.382 166.021H604.582Z" fill="#272727"/>
<path d="M672.319 220.446C661.353 220.446 652.369 217.938 645.369 212.921C638.486 207.788 634.636 200.846 633.819 192.096H646.419C647.003 197.463 649.511 201.838 653.944 205.221C658.494 208.488 664.561 210.121 672.144 210.121C678.794 210.121 683.986 208.546 687.719 205.396C691.569 202.246 693.494 198.338 693.494 193.671C693.494 190.404 692.444 187.721 690.344 185.621C688.244 183.521 685.561 181.888 682.294 180.721C679.144 179.438 674.828 178.096 669.344 176.696C662.228 174.829 656.453 172.963 652.019 171.096C647.586 169.229 643.794 166.488 640.644 162.871C637.611 159.138 636.094 154.179 636.094 147.996C636.094 143.329 637.494 139.013 640.294 135.046C643.094 131.079 647.061 127.929 652.194 125.596C657.328 123.263 663.161 122.096 669.694 122.096C679.961 122.096 688.244 124.721 694.544 129.971C700.844 135.104 704.228 142.221 704.694 151.321H692.444C692.094 145.721 689.878 141.229 685.794 137.846C681.828 134.346 676.344 132.596 669.344 132.596C663.161 132.596 658.144 134.054 654.294 136.971C650.444 139.888 648.519 143.504 648.519 147.821C648.519 151.554 649.628 154.646 651.844 157.096C654.178 159.429 657.036 161.296 660.419 162.696C663.803 163.979 668.353 165.438 674.069 167.071C680.953 168.938 686.436 170.746 690.519 172.496C694.603 174.246 698.103 176.813 701.019 180.196C703.936 183.579 705.453 188.071 705.569 193.671C705.569 198.804 704.169 203.413 701.369 207.496C698.569 211.463 694.661 214.613 689.644 216.946C684.628 219.279 678.853 220.446 672.319 220.446Z" fill="#272727"/>
<path d="M848.226 96.721V106.871H814.276V219.046H802.026V106.871H767.901V96.721H848.226Z" fill="#272727"/>
<path d="M950.344 123.496V219.046H938.094V202.246C935.294 208.196 930.977 212.746 925.144 215.896C919.311 219.046 912.777 220.621 905.544 220.621C894.11 220.621 884.777 217.121 877.544 210.121C870.31 203.004 866.694 192.738 866.694 179.321V123.496H878.769V177.921C878.769 188.304 881.336 196.238 886.469 201.721C891.719 207.204 898.836 209.946 907.819 209.946C917.036 209.946 924.386 207.029 929.869 201.196C935.352 195.363 938.094 186.788 938.094 175.471V123.496H950.344Z" fill="#272727"/>
<path d="M990.561 140.471C993.244 134.521 997.328 129.913 1002.81 126.646C1008.41 123.379 1015.24 121.746 1023.29 121.746V134.521H1019.96C1011.09 134.521 1003.98 136.913 998.611 141.696C993.244 146.479 990.561 154.471 990.561 165.671V219.046H978.311V123.496H990.561V140.471Z" fill="#272727"/>
<path d="M1086.51 121.746C1097.95 121.746 1107.28 125.304 1114.51 132.421C1121.75 139.421 1125.36 149.629 1125.36 163.046V219.046H1113.29V164.446C1113.29 154.063 1110.66 146.129 1105.41 140.646C1100.28 135.163 1093.22 132.421 1084.24 132.421C1075.02 132.421 1067.67 135.338 1062.19 141.171C1056.71 147.004 1053.96 155.579 1053.96 166.896V219.046H1041.71V123.496H1053.96V139.771C1057 133.938 1061.37 129.504 1067.09 126.471C1072.81 123.321 1079.28 121.746 1086.51 121.746Z" fill="#272727"/>
<path d="M1190.08 133.821H1167.86V219.046H1155.61V133.821H1142.31V123.496H1155.61V116.846C1155.61 106.463 1158.23 98.821 1163.48 93.921C1168.85 89.021 1177.48 86.571 1189.38 86.571V97.071C1181.45 97.071 1175.85 98.5877 1172.58 101.621C1169.43 104.654 1167.86 109.729 1167.86 116.846V123.496H1190.08V133.821Z" fill="#272727"/>
<path d="M1251.19 220.446C1242.21 220.446 1234.1 218.463 1226.87 214.496C1219.75 210.413 1214.09 204.696 1209.89 197.346C1205.81 189.879 1203.77 181.188 1203.77 171.271C1203.77 161.354 1205.87 152.721 1210.07 145.371C1214.27 137.904 1219.98 132.188 1227.22 128.221C1234.45 124.138 1242.56 122.096 1251.54 122.096C1260.52 122.096 1268.63 124.138 1275.87 128.221C1283.22 132.188 1288.93 137.904 1293.02 145.371C1297.22 152.721 1299.32 161.354 1299.32 171.271C1299.32 181.071 1297.22 189.704 1293.02 197.171C1288.82 204.638 1283.04 210.413 1275.69 214.496C1268.34 218.463 1260.17 220.446 1251.19 220.446ZM1251.19 209.771C1257.49 209.771 1263.32 208.371 1268.69 205.571C1274.06 202.654 1278.37 198.338 1281.64 192.621C1285.02 186.788 1286.72 179.671 1286.72 171.271C1286.72 162.871 1285.08 155.813 1281.82 150.096C1278.55 144.263 1274.23 139.946 1268.87 137.146C1263.5 134.229 1257.67 132.771 1251.37 132.771C1245.07 132.771 1239.23 134.229 1233.87 137.146C1228.5 139.946 1224.18 144.263 1220.92 150.096C1217.77 155.813 1216.19 162.871 1216.19 171.271C1216.19 179.671 1217.77 186.788 1220.92 192.621C1224.18 198.338 1228.44 202.654 1233.69 205.571C1239.06 208.371 1244.89 209.771 1251.19 209.771Z" fill="#272727"/>
<path d="M1333.9 140.471C1336.58 134.521 1340.66 129.913 1346.15 126.646C1351.75 123.379 1358.57 121.746 1366.62 121.746V134.521H1363.3C1354.43 134.521 1347.31 136.913 1341.95 141.696C1336.58 146.479 1333.9 154.471 1333.9 165.671V219.046H1321.65V123.496H1333.9V140.471Z" fill="#272727"/>
<path d="M1471.5 166.371C1471.5 170.571 1471.38 173.779 1471.15 175.996H1391.87C1392.22 183.229 1393.97 189.413 1397.12 194.546C1400.27 199.679 1404.42 203.588 1409.55 206.271C1414.68 208.838 1420.28 210.121 1426.35 210.121C1434.28 210.121 1440.93 208.196 1446.3 204.346C1451.78 200.496 1455.4 195.304 1457.15 188.771H1470.1C1467.77 198.104 1462.75 205.746 1455.05 211.696C1447.47 217.529 1437.9 220.446 1426.35 220.446C1417.37 220.446 1409.32 218.463 1402.2 214.496C1395.08 210.413 1389.48 204.696 1385.4 197.346C1381.43 189.879 1379.45 181.188 1379.45 171.271C1379.45 161.354 1381.43 152.663 1385.4 145.196C1389.37 137.729 1394.91 132.013 1402.02 128.046C1409.14 124.079 1417.25 122.096 1426.35 122.096C1435.45 122.096 1443.38 124.079 1450.15 128.046C1457.03 132.013 1462.28 137.379 1465.9 144.146C1469.63 150.796 1471.5 158.204 1471.5 166.371ZM1459.07 166.021C1459.19 158.904 1457.73 152.838 1454.7 147.821C1451.78 142.804 1447.76 139.013 1442.62 136.446C1437.49 133.879 1431.89 132.596 1425.82 132.596C1416.72 132.596 1408.97 135.513 1402.55 141.346C1396.13 147.179 1392.57 155.404 1391.87 166.021H1459.07Z" fill="#272727"/>
<path d="M1538.71 121.746C1550.15 121.746 1559.48 125.304 1566.71 132.421C1573.95 139.421 1577.56 149.629 1577.56 163.046V219.046H1565.49V164.446C1565.49 154.063 1562.86 146.129 1557.61 140.646C1552.48 135.163 1545.42 132.421 1536.44 132.421C1527.22 132.421 1519.87 135.338 1514.39 141.171C1508.9 147.004 1506.16 155.579 1506.16 166.896V219.046H1493.91V123.496H1506.16V139.771C1509.19 133.938 1513.57 129.504 1519.29 126.471C1525 123.321 1531.48 121.746 1538.71 121.746Z" fill="#272727"/>
<path d="M1610.78 105.471C1608.33 105.471 1606.23 104.596 1604.48 102.846C1602.73 101.096 1601.85 98.9377 1601.85 96.371C1601.85 93.8043 1602.73 91.7043 1604.48 90.071C1606.23 88.321 1608.33 87.446 1610.78 87.446C1613.23 87.446 1615.33 88.321 1617.08 90.071C1618.83 91.7043 1619.7 93.8043 1619.7 96.371C1619.7 98.9377 1618.83 101.096 1617.08 102.846C1615.33 104.596 1613.23 105.471 1610.78 105.471ZM1616.9 123.496V219.046H1604.65V123.496H1616.9Z" fill="#272727"/>
<path d="M1689.44 121.746C1700.88 121.746 1710.21 125.304 1717.44 132.421C1724.68 139.421 1728.29 149.629 1728.29 163.046V219.046H1716.22V164.446C1716.22 154.063 1713.59 146.129 1708.34 140.646C1703.21 135.163 1696.15 132.421 1687.17 132.421C1677.95 132.421 1670.6 135.338 1665.12 141.171C1659.64 147.004 1656.89 155.579 1656.89 166.896V219.046H1644.64V123.496H1656.89V139.771C1659.93 133.938 1664.3 129.504 1670.02 126.471C1675.74 123.321 1682.21 121.746 1689.44 121.746Z" fill="#272727"/>
<path d="M1795.46 122.096C1804.44 122.096 1812.26 124.196 1818.91 128.396C1825.56 132.596 1830.34 137.904 1833.26 144.321V123.496H1845.51V221.496C1845.51 230.246 1843.59 238.004 1839.74 244.771C1836 251.538 1830.75 256.729 1823.99 260.346C1817.22 264.079 1809.52 265.946 1800.89 265.946C1788.64 265.946 1778.43 263.029 1770.26 257.196C1762.21 251.363 1757.19 243.429 1755.21 233.396H1767.29C1769.39 240.046 1773.35 245.354 1779.19 249.321C1785.14 253.288 1792.37 255.271 1800.89 255.271C1807.07 255.271 1812.61 253.929 1817.51 251.246C1822.41 248.679 1826.26 244.829 1829.06 239.696C1831.86 234.563 1833.26 228.496 1833.26 221.496V197.871C1830.23 204.404 1825.39 209.829 1818.74 214.146C1812.2 218.346 1804.44 220.446 1795.46 220.446C1786.71 220.446 1778.84 218.404 1771.84 214.321C1764.95 210.238 1759.53 204.463 1755.56 196.996C1751.71 189.529 1749.79 180.896 1749.79 171.096C1749.79 161.296 1751.71 152.721 1755.56 145.371C1759.53 137.904 1764.95 132.188 1771.84 128.221C1778.84 124.138 1786.71 122.096 1795.46 122.096ZM1833.26 171.271C1833.26 163.571 1831.69 156.804 1828.54 150.971C1825.39 145.138 1821.07 140.646 1815.59 137.496C1810.22 134.346 1804.27 132.771 1797.74 132.771C1790.97 132.771 1784.9 134.288 1779.54 137.321C1774.17 140.354 1769.91 144.788 1766.76 150.621C1763.73 156.338 1762.21 163.163 1762.21 171.096C1762.21 178.913 1763.73 185.796 1766.76 191.746C1769.91 197.579 1774.17 202.071 1779.54 205.221C1784.9 208.254 1790.97 209.771 1797.74 209.771C1804.27 209.771 1810.22 208.196 1815.59 205.046C1821.07 201.896 1825.39 197.404 1828.54 191.571C1831.69 185.738 1833.26 178.971 1833.26 171.271Z" fill="#272727"/>
<path fill-rule="evenodd" clip-rule="evenodd" d="M76.4551 79.1225C76.4551 68.4151 85.1353 59.735 95.8427 59.735L173.393 59.735C184.101 59.735 192.781 68.4151 192.781 79.1226C192.781 89.83 184.101 98.5102 173.393 98.5102L95.8427 98.5101C85.1353 98.5101 76.4551 89.83 76.4551 79.1225ZM76.4551 261.471C76.4551 250.763 85.1353 242.083 95.8427 242.083H173.393C184.101 242.083 192.781 250.763 192.781 261.471C192.781 272.178 184.101 280.858 173.393 280.858H95.8427C85.1353 280.858 76.4551 272.178 76.4551 261.471Z" fill="#003D79"/>
<path fill-rule="evenodd" clip-rule="evenodd" d="M63.879 19.3877C63.879 8.68015 72.5591 0 83.2666 0L185.969 7.99547e-06C196.676 9.99434e-06 205.357 8.68017 205.357 19.3877C205.357 30.0952 196.676 38.7754 185.969 38.7754H154.005V150.909H229.46V117.898C229.46 107.19 238.14 98.5103 248.848 98.5103C259.555 98.5103 268.236 107.191 268.236 117.898L268.236 222.696C268.236 233.404 259.555 242.084 248.848 242.084C238.14 242.084 229.46 233.404 229.46 222.696V189.685H154.005V300.771H185.969C196.676 300.771 205.357 309.451 205.357 320.159C205.357 330.866 196.676 339.546 185.969 339.546H83.2666C72.5591 339.546 63.879 330.866 63.879 320.159C63.879 309.451 72.5591 300.771 83.2666 300.771H115.23V189.685H40.0858L39.7745 222.878C39.6741 233.585 30.9129 242.183 20.2059 242.083C9.49882 241.983 0.900452 233.221 1.00087 222.514L1.98374 117.716C2.08415 107.009 10.8453 98.4108 21.5524 98.5112C32.2594 98.6116 40.8578 107.373 40.7574 118.08L40.4495 150.909H115.23V38.7753H83.2666C72.5591 38.7753 63.879 30.0952 63.879 19.3877Z" fill="#0D5EAF"/>
</g>
<defs>
<clipPath id="clip0_424_432">
<rect width="1849" height="339.5" fill="white"/>
</clipPath>
</defs>
</svg>
