<svg width="1964" height="330" viewBox="0 0 1964 330" fill="none" xmlns="http://www.w3.org/2000/svg">
<path d="M461.752 285.128V300.04H478.008V304.84H461.752V320.2H479.928V325H455.928V280.328H479.928V285.128H461.752ZM516.197 280.392V285.128H504.037V325H498.213V285.128H485.989V280.392H516.197ZM549.734 315.08H530.278L526.694 325H520.549L536.678 280.648H543.398L559.462 325H553.318L549.734 315.08ZM548.07 310.344L540.006 287.816L531.942 310.344H548.07ZM588.827 302.024C590.448 302.28 591.92 302.941 593.243 304.008C594.608 305.075 595.675 306.397 596.443 307.976C597.253 309.555 597.659 311.24 597.659 313.032C597.659 315.293 597.083 317.341 595.931 319.176C594.779 320.968 593.093 322.397 590.875 323.464C588.699 324.488 586.117 325 583.131 325H566.491V280.392H582.491C585.52 280.392 588.101 280.904 590.235 281.928C592.368 282.909 593.968 284.253 595.035 285.96C596.101 287.667 596.635 289.587 596.635 291.72C596.635 294.365 595.909 296.563 594.458 298.312C593.051 300.019 591.173 301.256 588.827 302.024ZM572.315 299.656H582.107C584.837 299.656 586.949 299.016 588.443 297.736C589.936 296.456 590.683 294.685 590.683 292.424C590.683 290.163 589.936 288.392 588.443 287.112C586.949 285.832 584.795 285.192 581.979 285.192H572.315V299.656ZM582.619 320.2C585.52 320.2 587.781 319.517 589.403 318.152C591.024 316.787 591.835 314.888 591.835 312.456C591.835 309.981 590.981 308.04 589.275 306.632C587.568 305.181 585.285 304.456 582.427 304.456H572.315V320.2H582.619ZM611.565 320.264H627.181V325H605.741V280.392H611.565V320.264ZM639.19 285.128V300.04H655.446V304.84H639.19V320.2H657.366V325H633.366V280.328H657.366V285.128H639.19ZM689.666 325L679.042 306.76H672.002V325H666.178V280.392H680.578C683.949 280.392 686.786 280.968 689.09 282.12C691.437 283.272 693.186 284.829 694.338 286.792C695.49 288.755 696.066 290.995 696.066 293.512C696.066 296.584 695.17 299.293 693.378 301.64C691.629 303.987 688.983 305.544 685.442 306.312L696.642 325H689.666ZM672.002 302.088H680.578C683.735 302.088 686.103 301.32 687.682 299.784C689.261 298.205 690.05 296.115 690.05 293.512C690.05 290.867 689.261 288.819 687.682 287.368C686.146 285.917 683.778 285.192 680.578 285.192H672.002V302.088ZM732.572 280.392V285.128H720.412V325H714.588V285.128H702.364V280.392H732.572ZM754.307 284.04V278.728H766.339V325H760.451V284.04H754.307ZM783.831 312.584C784.258 315.016 785.239 316.893 786.775 318.216C788.354 319.539 790.466 320.2 793.111 320.2C796.652 320.2 799.255 318.813 800.919 316.04C802.626 313.267 803.436 308.595 803.351 302.024C802.455 303.944 800.962 305.459 798.871 306.568C796.78 307.635 794.455 308.168 791.895 308.168C789.036 308.168 786.476 307.592 784.215 306.44C781.996 305.245 780.247 303.517 778.967 301.256C777.687 298.995 777.047 296.264 777.047 293.064C777.047 288.499 778.37 284.829 781.015 282.056C783.66 279.24 787.415 277.832 792.279 277.832C798.252 277.832 802.434 279.773 804.823 283.656C807.255 287.539 808.471 293.32 808.471 301C808.471 306.376 807.98 310.813 806.999 314.312C806.06 317.811 804.439 320.477 802.135 322.312C799.874 324.147 796.759 325.064 792.791 325.064C788.439 325.064 785.047 323.891 782.615 321.544C780.183 319.197 778.796 316.211 778.455 312.584H783.831ZM792.855 303.24C795.714 303.24 798.06 302.365 799.895 300.616C801.73 298.824 802.647 296.413 802.647 293.384C802.647 290.184 801.751 287.603 799.959 285.64C798.167 283.677 795.65 282.696 792.407 282.696C789.42 282.696 787.031 283.635 785.239 285.512C783.49 287.389 782.615 289.864 782.615 292.936C782.615 296.051 783.49 298.547 785.239 300.424C786.988 302.301 789.527 303.24 792.855 303.24ZM815.952 320.328C821.37 315.976 825.616 312.413 828.688 309.64C831.76 306.824 834.341 303.901 836.432 300.872C838.565 297.8 839.632 294.792 839.632 291.848C839.632 289.075 838.949 286.899 837.584 285.32C836.261 283.699 834.106 282.888 831.12 282.888C828.218 282.888 825.957 283.805 824.336 285.64C822.757 287.432 821.904 289.843 821.776 292.872H816.144C816.314 288.093 817.765 284.403 820.496 281.8C823.226 279.197 826.746 277.896 831.056 277.896C835.45 277.896 838.928 279.112 841.488 281.544C844.09 283.976 845.392 287.325 845.392 291.592C845.392 295.133 844.325 298.589 842.192 301.96C840.101 305.288 837.712 308.232 835.024 310.792C832.336 313.309 828.901 316.253 824.72 319.624H846.736V324.488H815.952V320.328ZM852.06 314.696V310.28L874.524 279.176H881.5V309.64H887.9V314.696H881.5V325H875.74V314.696H852.06ZM875.996 285.256L858.78 309.64H875.996V285.256Z" fill="#0D5EAF"/>
<path d="M536.133 175.95H480.483L469.808 205H456.858L501.483 84.25H515.308L559.758 205H546.808L536.133 175.95ZM532.458 165.8L508.308 99.65L484.158 165.8H532.458ZM591.668 126.425C594.352 120.475 598.435 115.867 603.918 112.6C609.518 109.333 616.343 107.7 624.393 107.7V120.475H621.068C612.202 120.475 605.085 122.867 599.718 127.65C594.352 132.433 591.668 140.425 591.668 151.625V205H579.418V109.45H591.668V126.425ZM729.272 152.325C729.272 156.525 729.155 159.733 728.922 161.95H649.647C649.997 169.183 651.747 175.367 654.897 180.5C658.047 185.633 662.188 189.542 667.322 192.225C672.455 194.792 678.055 196.075 684.122 196.075C692.055 196.075 698.705 194.15 704.072 190.3C709.555 186.45 713.172 181.258 714.922 174.725H727.872C725.538 184.058 720.522 191.7 712.822 197.65C705.238 203.483 695.672 206.4 684.122 206.4C675.138 206.4 667.088 204.417 659.972 200.45C652.855 196.367 647.255 190.65 643.172 183.3C639.205 175.833 637.222 167.142 637.222 157.225C637.222 147.308 639.205 138.617 643.172 131.15C647.138 123.683 652.68 117.967 659.797 114C666.913 110.033 675.022 108.05 684.122 108.05C693.222 108.05 701.155 110.033 707.922 114C714.805 117.967 720.055 123.333 723.672 130.1C727.405 136.75 729.272 144.158 729.272 152.325ZM716.847 151.975C716.963 144.858 715.505 138.792 712.472 133.775C709.555 128.758 705.53 124.967 700.397 122.4C695.263 119.833 689.663 118.55 683.597 118.55C674.497 118.55 666.738 121.467 660.322 127.3C653.905 133.133 650.347 141.358 649.647 151.975H716.847ZM784.584 206.4C773.617 206.4 764.634 203.892 757.634 198.875C750.751 193.742 746.901 186.8 746.084 178.05H758.684C759.267 183.417 761.776 187.792 766.209 191.175C770.759 194.442 776.826 196.075 784.409 196.075C791.059 196.075 796.251 194.5 799.984 191.35C803.834 188.2 805.759 184.292 805.759 179.625C805.759 176.358 804.709 173.675 802.609 171.575C800.509 169.475 797.826 167.842 794.559 166.675C791.409 165.392 787.092 164.05 781.609 162.65C774.492 160.783 768.717 158.917 764.284 157.05C759.851 155.183 756.059 152.442 752.909 148.825C749.876 145.092 748.359 140.133 748.359 133.95C748.359 129.283 749.759 124.967 752.559 121C755.359 117.033 759.326 113.883 764.459 111.55C769.592 109.217 775.426 108.05 781.959 108.05C792.226 108.05 800.509 110.675 806.809 115.925C813.109 121.058 816.492 128.175 816.959 137.275H804.709C804.359 131.675 802.142 127.183 798.059 123.8C794.092 120.3 788.609 118.55 781.609 118.55C775.426 118.55 770.409 120.008 766.559 122.925C762.709 125.842 760.784 129.458 760.784 133.775C760.784 137.508 761.892 140.6 764.109 143.05C766.442 145.383 769.301 147.25 772.684 148.65C776.067 149.933 780.617 151.392 786.334 153.025C793.217 154.892 798.701 156.7 802.784 158.45C806.867 160.2 810.367 162.767 813.284 166.15C816.201 169.533 817.717 174.025 817.834 179.625C817.834 184.758 816.434 189.367 813.634 193.45C810.834 197.417 806.926 200.567 801.909 202.9C796.892 205.233 791.117 206.4 784.584 206.4ZM960.491 82.675V92.825H926.541V205H914.291V92.825H880.166V82.675H960.491ZM1062.61 109.45V205H1050.36V188.2C1047.56 194.15 1043.24 198.7 1037.41 201.85C1031.58 205 1025.04 206.575 1017.81 206.575C1006.38 206.575 997.042 203.075 989.808 196.075C982.575 188.958 978.958 178.692 978.958 165.275V109.45H991.033V163.875C991.033 174.258 993.6 182.192 998.733 187.675C1003.98 193.158 1011.1 195.9 1020.08 195.9C1029.3 195.9 1036.65 192.983 1042.13 187.15C1047.62 181.317 1050.36 172.742 1050.36 161.425V109.45H1062.61ZM1102.83 126.425C1105.51 120.475 1109.59 115.867 1115.08 112.6C1120.68 109.333 1127.5 107.7 1135.55 107.7V120.475H1132.23C1123.36 120.475 1116.24 122.867 1110.88 127.65C1105.51 132.433 1102.83 140.425 1102.83 151.625V205H1090.58V109.45H1102.83V126.425ZM1198.78 107.7C1210.21 107.7 1219.55 111.258 1226.78 118.375C1234.01 125.375 1237.63 135.583 1237.63 149V205H1225.55V150.4C1225.55 140.017 1222.93 132.083 1217.68 126.6C1212.55 121.117 1205.49 118.375 1196.5 118.375C1187.29 118.375 1179.94 121.292 1174.45 127.125C1168.97 132.958 1166.23 141.533 1166.23 152.85V205H1153.98V109.45H1166.23V125.725C1169.26 119.892 1173.64 115.458 1179.35 112.425C1185.07 109.275 1191.55 107.7 1198.78 107.7ZM1302.35 119.775H1280.12V205H1267.87V119.775H1254.57V109.45H1267.87V102.8C1267.87 92.4167 1270.5 84.775 1275.75 79.875C1281.11 74.975 1289.75 72.525 1301.65 72.525V83.025C1293.71 83.025 1288.11 84.5417 1284.85 87.575C1281.7 90.6083 1280.12 95.6833 1280.12 102.8V109.45H1302.35V119.775ZM1363.46 206.4C1354.47 206.4 1346.36 204.417 1339.13 200.45C1332.01 196.367 1326.36 190.65 1322.16 183.3C1318.07 175.833 1316.03 167.142 1316.03 157.225C1316.03 147.308 1318.13 138.675 1322.33 131.325C1326.53 123.858 1332.25 118.142 1339.48 114.175C1346.71 110.092 1354.82 108.05 1363.81 108.05C1372.79 108.05 1380.9 110.092 1388.13 114.175C1395.48 118.142 1401.2 123.858 1405.28 131.325C1409.48 138.675 1411.58 147.308 1411.58 157.225C1411.58 167.025 1409.48 175.658 1405.28 183.125C1401.08 190.592 1395.31 196.367 1387.96 200.45C1380.61 204.417 1372.44 206.4 1363.46 206.4ZM1363.46 195.725C1369.76 195.725 1375.59 194.325 1380.96 191.525C1386.32 188.608 1390.64 184.292 1393.91 178.575C1397.29 172.742 1398.98 165.625 1398.98 157.225C1398.98 148.825 1397.35 141.767 1394.08 136.05C1390.81 130.217 1386.5 125.9 1381.13 123.1C1375.76 120.183 1369.93 118.725 1363.63 118.725C1357.33 118.725 1351.5 120.183 1346.13 123.1C1340.76 125.9 1336.45 130.217 1333.18 136.05C1330.03 141.767 1328.46 148.825 1328.46 157.225C1328.46 165.625 1330.03 172.742 1333.18 178.575C1336.45 184.292 1340.71 188.608 1345.96 191.525C1351.32 194.325 1357.16 195.725 1363.46 195.725ZM1446.16 126.425C1448.84 120.475 1452.93 115.867 1458.41 112.6C1464.01 109.333 1470.84 107.7 1478.89 107.7V120.475H1475.56C1466.69 120.475 1459.58 122.867 1454.21 127.65C1448.84 132.433 1446.16 140.425 1446.16 151.625V205H1433.91V109.45H1446.16V126.425ZM1583.76 152.325C1583.76 156.525 1583.65 159.733 1583.41 161.95H1504.14C1504.49 169.183 1506.24 175.367 1509.39 180.5C1512.54 185.633 1516.68 189.542 1521.81 192.225C1526.95 194.792 1532.55 196.075 1538.61 196.075C1546.55 196.075 1553.2 194.15 1558.56 190.3C1564.05 186.45 1567.66 181.258 1569.41 174.725H1582.36C1580.03 184.058 1575.01 191.7 1567.31 197.65C1559.73 203.483 1550.16 206.4 1538.61 206.4C1529.63 206.4 1521.58 204.417 1514.46 200.45C1507.35 196.367 1501.75 190.65 1497.66 183.3C1493.7 175.833 1491.71 167.142 1491.71 157.225C1491.71 147.308 1493.7 138.617 1497.66 131.15C1501.63 123.683 1507.17 117.967 1514.29 114C1521.41 110.033 1529.51 108.05 1538.61 108.05C1547.71 108.05 1555.65 110.033 1562.41 114C1569.3 117.967 1574.55 123.333 1578.16 130.1C1581.9 136.75 1583.76 144.158 1583.76 152.325ZM1571.34 151.975C1571.46 144.858 1570 138.792 1566.96 133.775C1564.05 128.758 1560.02 124.967 1554.89 122.4C1549.76 119.833 1544.16 118.55 1538.09 118.55C1528.99 118.55 1521.23 121.467 1514.81 127.3C1508.4 133.133 1504.84 141.358 1504.14 151.975H1571.34ZM1650.98 107.7C1662.41 107.7 1671.74 111.258 1678.98 118.375C1686.21 125.375 1689.83 135.583 1689.83 149V205H1677.75V150.4C1677.75 140.017 1675.13 132.083 1669.88 126.6C1664.74 121.117 1657.68 118.375 1648.7 118.375C1639.48 118.375 1632.13 121.292 1626.65 127.125C1621.17 132.958 1618.43 141.533 1618.43 152.85V205H1606.18V109.45H1618.43V125.725C1621.46 119.892 1625.83 115.458 1631.55 112.425C1637.27 109.275 1643.74 107.7 1650.98 107.7ZM1723.04 91.425C1720.59 91.425 1718.49 90.55 1716.74 88.8C1714.99 87.05 1714.12 84.8917 1714.12 82.325C1714.12 79.7583 1714.99 77.6583 1716.74 76.025C1718.49 74.275 1720.59 73.4 1723.04 73.4C1725.49 73.4 1727.59 74.275 1729.34 76.025C1731.09 77.6583 1731.97 79.7583 1731.97 82.325C1731.97 84.8917 1731.09 87.05 1729.34 88.8C1727.59 90.55 1725.49 91.425 1723.04 91.425ZM1729.17 109.45V205H1716.92V109.45H1729.17ZM1801.71 107.7C1813.14 107.7 1822.48 111.258 1829.71 118.375C1836.94 125.375 1840.56 135.583 1840.56 149V205H1828.48V150.4C1828.48 140.017 1825.86 132.083 1820.61 126.6C1815.48 121.117 1808.42 118.375 1799.43 118.375C1790.22 118.375 1782.87 121.292 1777.38 127.125C1771.9 132.958 1769.16 141.533 1769.16 152.85V205H1756.91V109.45H1769.16V125.725C1772.19 119.892 1776.57 115.458 1782.28 112.425C1788 109.275 1794.48 107.7 1801.71 107.7ZM1907.73 108.05C1916.71 108.05 1924.53 110.15 1931.18 114.35C1937.83 118.55 1942.61 123.858 1945.53 130.275V109.45H1957.78V207.45C1957.78 216.2 1955.85 223.958 1952 230.725C1948.27 237.492 1943.02 242.683 1936.25 246.3C1929.48 250.033 1921.78 251.9 1913.15 251.9C1900.9 251.9 1890.69 248.983 1882.53 243.15C1874.48 237.317 1869.46 229.383 1867.48 219.35H1879.55C1881.65 226 1885.62 231.308 1891.45 235.275C1897.4 239.242 1904.63 241.225 1913.15 241.225C1919.33 241.225 1924.88 239.883 1929.78 237.2C1934.68 234.633 1938.53 230.783 1941.33 225.65C1944.13 220.517 1945.53 214.45 1945.53 207.45V183.825C1942.49 190.358 1937.65 195.783 1931 200.1C1924.47 204.3 1916.71 206.4 1907.73 206.4C1898.98 206.4 1891.1 204.358 1884.1 200.275C1877.22 196.192 1871.79 190.417 1867.83 182.95C1863.98 175.483 1862.05 166.85 1862.05 157.05C1862.05 147.25 1863.98 138.675 1867.83 131.325C1871.79 123.858 1877.22 118.142 1884.1 114.175C1891.1 110.092 1898.98 108.05 1907.73 108.05ZM1945.53 157.225C1945.53 149.525 1943.95 142.758 1940.8 136.925C1937.65 131.092 1933.33 126.6 1927.85 123.45C1922.48 120.3 1916.53 118.725 1910 118.725C1903.23 118.725 1897.17 120.242 1891.8 123.275C1886.43 126.308 1882.18 130.742 1879.03 136.575C1875.99 142.292 1874.48 149.117 1874.48 157.05C1874.48 164.867 1875.99 171.75 1879.03 177.7C1882.18 183.533 1886.43 188.025 1891.8 191.175C1897.17 194.208 1903.23 195.725 1910 195.725C1916.53 195.725 1922.48 194.15 1927.85 191C1933.33 187.85 1937.65 183.358 1940.8 177.525C1943.95 171.692 1945.53 164.925 1945.53 157.225Z" fill="#272727"/>
<path fill-rule="evenodd" clip-rule="evenodd" d="M72.3633 14.0804C77.8417 3.23532 91.0745 -1.1152 101.92 4.36324C114.907 10.9238 127.623 21.9795 138.956 33.8287C150.556 45.9583 161.906 60.1994 172.043 74.5063C181.558 87.936 190.214 101.72 197.176 114.313C228.128 85.443 277.176 71 328 71C340.15 71 350 80.8497 350 93C350 105.15 340.15 115 328 115C266.381 115 224.606 138.694 212.748 166.603C198.539 200.047 195.997 219.997 196.78 234.23C197.181 241.518 198.491 248.061 200.298 255.162C200.817 257.203 201.455 259.555 202.143 262.09C202.864 264.748 203.639 267.607 204.39 270.52C212.266 274.678 226.065 279.136 246.831 281.589C272.588 284.632 306.297 284.258 346.224 278.245C358.238 276.436 369.445 284.709 371.255 296.724C373.064 308.738 364.791 319.945 352.776 321.755C309.703 328.242 271.995 328.868 241.669 325.286C219.242 322.636 199.036 317.476 183.706 309.347C174.591 313.156 164.571 315.817 154.714 317.763C139.372 320.792 122.455 322.451 105.987 323.284C73.0411 324.951 40.0433 323.396 21.2896 321.933C9.1761 320.989 0.121954 310.403 1.06658 298.29C2.01121 286.176 12.5969 277.122 24.7104 278.067C42.29 279.437 73.2922 280.882 103.763 279.341C119.004 278.57 133.648 277.073 146.192 274.596C151.058 273.636 155.352 272.575 159.082 271.453C158.628 269.764 158.154 267.967 157.656 266.01C155.499 257.533 153.466 247.92 152.846 236.645C151.675 215.344 155.671 190.658 169.087 157.072C167.193 152.233 164.153 145.703 159.863 137.782C153.587 126.197 145.362 112.957 136.141 99.9437C126.906 86.9089 116.91 74.4375 107.157 64.24C97.1364 53.7622 88.4931 46.8762 82.0804 43.6367C71.2353 38.1583 66.8848 24.9255 72.3633 14.0804Z" fill="#0D5EAF"/>
<path d="M246.5 52.5C246.5 71.5538 231.054 87 212 87C192.946 87 177.5 71.5538 177.5 52.5C177.5 33.4462 192.946 18 212 18C231.054 18 246.5 33.4462 246.5 52.5Z" fill="#0D5EAF"/>
</svg>
