<?xml version="1.0" standalone="no"?>
<!DOCTYPE svg PUBLIC "-//W3C//DTD SVG 20010904//EN"
 "http://www.w3.org/TR/2001/REC-SVG-20010904/DTD/svg10.dtd">
<svg version="1.0" xmlns="http://www.w3.org/2000/svg"
 width="324.000000pt" height="324.000000pt" viewBox="0 0 324.000000 324.000000"
 preserveAspectRatio="xMidYMid meet">
<metadata>
Created by potrace 1.14, written by Peter Selinger 2001-2017
</metadata>
<g transform="translate(0.000000,324.000000) scale(0.100000,-0.100000)"
fill="#000000" stroke="none">
<path d="M1042 3219 c-63 -30 -97 -86 -97 -164 0 -78 33 -132 97 -164 40 -19
61 -21 216 -21 l172 0 0 -100 0 -100 -111 0 c-124 0 -164 -12 -211 -65 -75
-83 -56 -218 40 -277 32 -20 53 -23 160 -27 l122 -3 0 -249 0 -249 -357 0
-358 0 0 187 c0 213 -5 229 -79 281 -32 22 -50 27 -101 27 -52 0 -68 -5 -103
-29 -23 -16 -50 -46 -61 -70 -20 -40 -21 -67 -26 -580 l-5 -538 22 -45 c33
-67 85 -98 162 -98 73 0 114 22 154 79 27 39 27 41 30 228 l3 188 360 0 359 0
0 -250 0 -250 -110 0 c-125 0 -161 -11 -209 -60 -67 -70 -66 -186 2 -252 50
-48 84 -58 207 -58 l110 0 0 -95 0 -95 -162 0 c-181 0 -220 -7 -266 -48 -89
-79 -79 -220 20 -288 l41 -29 540 -3 c535 -3 539 -3 584 19 109 53 136 201 52
289 -52 54 -80 60 -269 60 l-170 0 0 94 0 94 123 4 c116 3 126 5 163 30 57 40
78 81 79 154 0 76 -31 129 -97 161 -39 20 -61 23 -157 23 l-111 0 0 250 0 250
359 0 360 0 3 -188 3 -189 29 -41 c33 -48 95 -82 151 -82 53 0 120 36 152 83
l28 40 3 550 c3 538 2 550 -18 592 -66 137 -264 136 -330 0 -18 -37 -20 -62
-20 -218 l0 -177 -360 0 -360 0 0 250 0 250 109 0 c77 0 120 5 147 16 120 50
151 206 60 297 -45 45 -88 57 -207 57 l-109 0 0 100 0 100 163 0 c180 0 219 7
265 48 89 79 79 220 -20 288 l-41 29 -541 2 c-524 3 -542 2 -584 -18z"/>
</g>
</svg>
